<svg width="360" height="65" viewBox="0 0 360 65" fill="none" xmlns="http://www.w3.org/2000/svg">
<path fill-rule="evenodd" clip-rule="evenodd" d="M10 1C4.47715 1 0 5.47715 0 11V52C0 57.5228 4.47715 62 10 62H50C55.5228 62 60 57.5229 60 52V11C60 5.47715 55.5228 1 50 1H10ZM24.3242 41.8652C23.1393 40.8158 22.4368 39.0977 22.2168 36.7109H14.5996C14.8874 40.6211 16.3431 43.7357 18.9668 46.0547C21.6074 48.3568 25.1113 49.5078 29.4785 49.5078C34.2181 49.5078 37.9421 47.9167 40.6504 44.7344C43.3757 41.5352 44.7383 37.2103 44.7383 31.7598V29.3477C44.7383 25.7591 44.112 22.6191 42.8594 19.9277C41.6068 17.2194 39.8125 15.1458 37.4766 13.707C35.1576 12.2513 32.4577 11.5234 29.377 11.5234C25.0436 11.5234 21.582 12.6914 18.9922 15.0273C16.4193 17.3633 14.9466 20.554 14.5742 24.5996H22.1914C22.3776 22.179 23.0462 20.4271 24.1973 19.3438C25.3483 18.2435 27.0749 17.6934 29.377 17.6934C31.7467 17.6934 33.5664 18.4974 34.8359 20.1055C36.1224 21.6966 36.8672 24.1426 37.0703 27.4434H25.416V33.6133H37.0957C36.9095 36.8464 36.2155 39.2923 35.0137 40.9512C33.8118 42.5931 31.9668 43.4141 29.4785 43.4141C27.2272 43.4141 25.5091 42.8978 24.3242 41.8652Z" fill="#E72B2B"/>
<path d="M82.5264 27.9102C82.6357 31.2461 84.3584 32.9141 87.6943 32.9141C89.4033 32.9141 90.6885 32.374 91.5498 31.2939C92.4248 30.2139 92.9443 28.3955 93.1084 25.8389H84.8643V20.2812H93.1084C92.917 17.8203 92.377 16.043 91.4883 14.9492C90.5996 13.8418 89.3691 13.2881 87.7969 13.2881C86.0332 13.2881 84.7139 13.6982 83.8389 14.5186C82.9775 15.3252 82.5195 16.6445 82.4648 18.4766H75.3076C75.6084 15.127 76.8594 12.502 79.0605 10.6016C81.2617 8.6875 84.1738 7.73047 87.7969 7.73047C90.2852 7.73047 92.4795 8.31836 94.3799 9.49414C96.2939 10.6699 97.7637 12.3652 98.7891 14.5801C99.8281 16.7812 100.348 19.3516 100.348 22.291V23.9111C100.348 28.4775 99.2197 32.0391 96.9639 34.5957C94.708 37.1523 91.6182 38.4307 87.6943 38.4307C85.3291 38.4307 83.2236 38 81.3779 37.1387C79.5459 36.2637 78.1104 35.0332 77.0713 33.4473C76.0322 31.8477 75.458 30.002 75.3486 27.9102H82.5264ZM128.505 8.14062V38H121.307V13.6982H114.601L114.108 23.7266C113.903 27.1855 113.425 29.9473 112.673 32.0117C111.921 34.0762 110.848 35.5869 109.453 36.5439C108.072 37.4873 106.186 37.9727 103.793 38H101.865V32.4629L102.87 32.3604C104.306 32.1553 105.345 31.2803 105.987 29.7354C106.63 28.1768 107.047 25.5586 107.238 21.8809L107.751 8.14062H128.505ZM157.154 27.8896C157.059 29.9678 156.498 31.8066 155.473 33.4062C154.447 34.9922 153.005 36.2227 151.146 37.0977C149.3 37.9727 147.188 38.4102 144.809 38.4102C140.885 38.4102 137.795 37.1318 135.539 34.5752C133.283 32.0186 132.155 28.4092 132.155 23.7471V22.2705C132.155 19.3447 132.661 16.7881 133.673 14.6006C134.698 12.3994 136.168 10.7041 138.082 9.51465C139.996 8.31152 142.211 7.70996 144.727 7.70996C148.35 7.70996 151.262 8.66699 153.463 10.5811C155.664 12.4814 156.915 15.1064 157.216 18.4561H150.038C149.983 16.6377 149.525 15.332 148.664 14.5391C147.803 13.7461 146.49 13.3496 144.727 13.3496C142.936 13.3496 141.623 14.0195 140.789 15.3594C139.955 16.6992 139.518 18.8389 139.477 21.7783V23.8906C139.477 27.0762 139.873 29.3525 140.666 30.7197C141.473 32.0869 142.854 32.7705 144.809 32.7705C146.463 32.7705 147.728 32.3809 148.603 31.6016C149.478 30.8223 149.942 29.585 149.997 27.8896H157.154ZM178.072 8.14062H185.271V38H178.072V19.1738L167.347 38H160.148V8.14062H167.347V26.9873L178.072 8.14062Z" fill="#E72B2B"/>
<path d="M224.297 27.8896C224.201 29.9678 223.641 31.8066 222.615 33.4062C221.59 34.9922 220.147 36.2227 218.288 37.0977C216.442 37.9727 214.33 38.4102 211.951 38.4102C208.027 38.4102 204.938 37.1318 202.682 34.5752C200.426 32.0186 199.298 28.4092 199.298 23.7471V22.2705C199.298 19.3447 199.804 16.7881 200.815 14.6006C201.841 12.3994 203.311 10.7041 205.225 9.51465C207.139 8.31152 209.354 7.70996 211.869 7.70996C215.492 7.70996 218.404 8.66699 220.605 10.5811C222.807 12.4814 224.058 15.1064 224.358 18.4561H217.181C217.126 16.6377 216.668 15.332 215.807 14.5391C214.945 13.7461 213.633 13.3496 211.869 13.3496C210.078 13.3496 208.766 14.0195 207.932 15.3594C207.098 16.6992 206.66 18.8389 206.619 21.7783V23.8906C206.619 27.0762 207.016 29.3525 207.809 30.7197C208.615 32.0869 209.996 32.7705 211.951 32.7705C213.605 32.7705 214.87 32.3809 215.745 31.6016C216.62 30.8223 217.085 29.585 217.14 27.8896H224.297ZM250.526 13.6982H241.564V38H234.366V13.6982H225.568V8.14062H250.526V13.6982ZM260.78 27.8691V38H253.582V8.14062H265.497C267.78 8.14062 269.797 8.56445 271.547 9.41211C273.311 10.2461 274.671 11.4424 275.628 13.001C276.599 14.5459 277.084 16.3027 277.084 18.2715C277.084 21.1836 276.038 23.5146 273.946 25.2646C271.868 27.001 269.011 27.8691 265.374 27.8691H260.78ZM260.78 22.3115H265.497C266.892 22.3115 267.951 21.9629 268.676 21.2656C269.414 20.5684 269.783 19.584 269.783 18.3125C269.783 16.918 269.407 15.8037 268.655 14.9697C267.903 14.1357 266.878 13.7119 265.579 13.6982H260.78V22.3115ZM306.226 23.6855C306.226 26.5977 305.686 29.1748 304.605 31.417C303.525 33.6592 301.987 35.3887 299.991 36.6055C298.009 37.8086 295.746 38.4102 293.203 38.4102C290.66 38.4102 288.404 37.8291 286.436 36.667C284.467 35.4912 282.929 33.8164 281.821 31.6426C280.728 29.4688 280.153 26.9736 280.099 24.1572V22.4756C280.099 19.5498 280.632 16.9727 281.698 14.7441C282.778 12.502 284.316 10.7725 286.312 9.55566C288.322 8.33887 290.605 7.73047 293.162 7.73047C295.691 7.73047 297.947 8.33203 299.93 9.53516C301.912 10.7383 303.45 12.4541 304.544 14.6826C305.651 16.8975 306.212 19.4404 306.226 22.3115V23.6855ZM298.904 22.4346C298.904 19.4678 298.405 17.2188 297.407 15.6875C296.423 14.1426 295.008 13.3701 293.162 13.3701C289.553 13.3701 287.646 16.0771 287.44 21.4912L287.42 23.6855C287.42 26.6113 287.905 28.8604 288.876 30.4326C289.847 32.0049 291.289 32.791 293.203 32.791C295.021 32.791 296.423 32.0186 297.407 30.4736C298.392 28.9287 298.891 26.707 298.904 23.8086V22.4346ZM327.451 8.14062H334.649V38H327.451V19.1738L316.726 38H309.527V8.14062H316.726V26.9873L327.451 8.14062ZM329.728 0.101562C329.728 1.97461 329.037 3.49219 327.656 4.6543C326.275 5.81641 324.437 6.39746 322.14 6.39746C319.843 6.39746 318.004 5.81641 316.623 4.6543C315.242 3.49219 314.552 1.97461 314.552 0.101562H319.248C319.248 0.921875 319.501 1.56445 320.007 2.0293C320.526 2.48047 321.237 2.70605 322.14 2.70605C323.042 2.70605 323.739 2.4873 324.231 2.0498C324.737 1.59863 324.99 0.949219 324.99 0.101562H329.728Z" fill="#808080"/>
<path d="M81.5879 51.2261H83.259V61H81.5879V53.8728L77.0803 61H75.4092V51.2261H77.0803V58.3623L81.5879 51.2261ZM93.9272 61H92.2561V56.8267H87.7666V61H86.0864V51.2261H87.7666V55.4626H92.2561V51.2261H93.9272V61ZM100.54 59.8167C101.136 59.8167 101.657 59.636 102.102 59.2747C102.548 58.9133 102.795 58.4617 102.843 57.9197H104.424C104.394 58.4797 104.201 59.0127 103.846 59.5186C103.49 60.0244 103.015 60.4279 102.418 60.729C101.828 61.0301 101.202 61.1807 100.54 61.1807C99.2087 61.1807 98.1488 60.738 97.3599 59.8528C96.577 58.9615 96.1855 57.745 96.1855 56.2034V55.9233C96.1855 54.9718 96.3602 54.1257 96.7095 53.385C97.0588 52.6443 97.5586 52.0692 98.209 51.6597C98.8654 51.2502 99.6392 51.0454 100.531 51.0454C101.627 51.0454 102.536 51.3736 103.259 52.03C103.987 52.6864 104.376 53.5386 104.424 54.5864H102.843C102.795 53.9541 102.554 53.4362 102.12 53.0327C101.693 52.6232 101.163 52.4185 100.531 52.4185C99.6814 52.4185 99.022 52.7256 98.5522 53.3398C98.0885 53.9481 97.8567 54.8303 97.8567 55.9866V56.3027C97.8567 57.4289 98.0885 58.2961 98.5522 58.9043C99.016 59.5125 99.6784 59.8167 100.54 59.8167ZM113.565 52.5811H110.286V61H108.615V52.5811H105.399V51.2261H113.565V52.5811ZM123.448 56.2214C123.448 57.7089 123.108 58.9073 122.427 59.8167C121.747 60.726 120.825 61.1807 119.663 61.1807C118.476 61.1807 117.543 60.8043 116.863 60.0515V64.7578H115.191V51.2261H116.718L116.799 52.3101C117.48 51.467 118.425 51.0454 119.636 51.0454C120.81 51.0454 121.737 51.488 122.418 52.3733C123.104 53.2585 123.448 54.4901 123.448 56.0679V56.2214ZM121.777 56.0317C121.777 54.9297 121.542 54.0595 121.072 53.4211C120.602 52.7828 119.958 52.4636 119.139 52.4636C118.127 52.4636 117.368 52.9123 116.863 53.8096V58.4797C117.362 59.371 118.127 59.8167 119.157 59.8167C119.958 59.8167 120.593 59.5005 121.063 58.8682C121.539 58.2298 121.777 57.2843 121.777 56.0317ZM128.669 58.552L130.945 51.2261H132.734L128.804 62.5085C128.196 64.1345 127.23 64.9475 125.905 64.9475L125.589 64.9204L124.965 64.803V63.448L125.417 63.4841C125.983 63.4841 126.423 63.3697 126.736 63.1409C127.055 62.912 127.317 62.4935 127.522 61.8853L127.892 60.8916L124.405 51.2261H126.23L128.669 58.552ZM139.861 58.7869L143.185 51.2261H145.272V61H143.601V53.8909L140.439 61H139.283L136.058 53.7373V61H134.387V51.2261H136.555L139.861 58.7869ZM152.02 61.1807C150.695 61.1807 149.617 60.7471 148.786 59.8799C147.955 59.0067 147.539 57.8414 147.539 56.384V56.0769C147.539 55.1073 147.723 54.2432 148.09 53.4844C148.464 52.7196 148.982 52.1234 149.644 51.6958C150.312 51.2622 151.035 51.0454 151.812 51.0454C153.083 51.0454 154.07 51.4639 154.775 52.301C155.479 53.1381 155.832 54.3365 155.832 55.8962V56.5918H149.21C149.235 57.5553 149.515 58.3352 150.051 58.9314C150.593 59.5216 151.279 59.8167 152.11 59.8167C152.7 59.8167 153.2 59.6962 153.61 59.4553C154.019 59.2144 154.377 58.8953 154.685 58.4978L155.705 59.2927C154.886 60.5514 153.658 61.1807 152.02 61.1807ZM151.812 52.4185C151.138 52.4185 150.571 52.6654 150.114 53.1592C149.656 53.647 149.373 54.3335 149.265 55.2188H154.161V55.0923C154.112 54.2432 153.884 53.5868 153.474 53.123C153.065 52.6533 152.511 52.4185 151.812 52.4185ZM165.759 61H164.088V56.8267H159.599V61H157.918V51.2261H159.599V55.4626H164.088V51.2261H165.759V61ZM175.714 52.5811H172.435V61H170.764V52.5811H167.548V51.2261H175.714V52.5811ZM179.165 54.5955H181.703C182.811 54.6075 183.687 54.8966 184.332 55.4626C184.976 56.0287 185.298 56.7965 185.298 57.7661C185.298 58.7417 184.967 59.5246 184.304 60.1147C183.642 60.7049 182.751 61 181.631 61H177.493V51.2261H179.165V54.5955ZM188.785 61H187.105V51.2261H188.785V61ZM179.165 55.9595V59.636H181.649C182.275 59.636 182.76 59.4764 183.103 59.1572C183.446 58.832 183.618 58.3894 183.618 57.8293C183.618 57.2874 183.449 56.8447 183.112 56.5015C182.781 56.1522 182.314 55.9715 181.712 55.9595H179.165ZM202.615 51.2261H204.286V61H202.615V53.8728L198.107 61H196.436V51.2261H198.107V58.3623L202.615 51.2261ZM211.115 56.0227C211.115 55.0652 211.302 54.204 211.675 53.4392C212.054 52.6744 212.578 52.0842 213.247 51.6687C213.921 51.2532 214.689 51.0454 215.55 51.0454C216.881 51.0454 217.956 51.5061 218.775 52.4275C219.6 53.3489 220.013 54.5744 220.013 56.104V56.2214C220.013 57.1729 219.829 58.0281 219.462 58.7869C219.1 59.5396 218.579 60.1268 217.899 60.5483C217.224 60.9699 216.448 61.1807 215.568 61.1807C214.243 61.1807 213.169 60.72 212.344 59.7986C211.524 58.8772 211.115 57.6577 211.115 56.1401V56.0227ZM212.795 56.2214C212.795 57.3054 213.045 58.1756 213.545 58.832C214.051 59.4884 214.725 59.8167 215.568 59.8167C216.417 59.8167 217.092 59.4854 217.592 58.823C218.092 58.1545 218.342 57.2211 218.342 56.0227C218.342 54.9508 218.086 54.0836 217.574 53.4211C217.068 52.7527 216.393 52.4185 215.55 52.4185C214.725 52.4185 214.06 52.7467 213.554 53.4031C213.048 54.0595 212.795 54.9989 212.795 56.2214ZM226.399 51.7861C227.628 51.7861 228.609 52.1986 229.344 53.0237C230.085 53.8427 230.455 54.9237 230.455 56.2666V56.4202C230.455 57.3416 230.277 58.1666 229.922 58.8953C229.567 59.6179 229.055 60.181 228.386 60.5845C227.724 60.9819 226.959 61.1807 226.092 61.1807C224.779 61.1807 223.722 60.7441 222.921 59.8708C222.12 58.9916 221.72 57.8143 221.72 56.3389V55.5259C221.72 53.4723 222.099 51.8403 222.858 50.6299C223.623 49.4194 224.749 48.6817 226.237 48.4167C227.08 48.2662 227.649 48.0825 227.944 47.8657C228.239 47.6489 228.386 47.3508 228.386 46.9714H229.76C229.76 47.7242 229.588 48.3114 229.245 48.7329C228.907 49.1545 228.365 49.4526 227.619 49.6272L226.372 49.9072C225.378 50.1421 224.632 50.5396 224.132 51.0996C223.638 51.6536 223.316 52.3944 223.165 53.3218C224.051 52.298 225.128 51.7861 226.399 51.7861ZM226.074 53.1592C225.255 53.1592 224.605 53.4362 224.123 53.9902C223.641 54.5382 223.4 55.3 223.4 56.2756V56.4202C223.4 57.468 223.641 58.2991 224.123 58.9133C224.611 59.5216 225.267 59.8257 226.092 59.8257C226.923 59.8257 227.58 59.5186 228.061 58.9043C228.543 58.29 228.784 57.3927 228.784 56.2124C228.784 55.291 228.54 54.5533 228.052 53.9993C227.57 53.4392 226.911 53.1592 226.074 53.1592ZM231.891 56.0227C231.891 55.0652 232.078 54.204 232.451 53.4392C232.831 52.6744 233.355 52.0842 234.023 51.6687C234.698 51.2532 235.465 51.0454 236.327 51.0454C237.658 51.0454 238.733 51.5061 239.552 52.4275C240.377 53.3489 240.789 54.5744 240.789 56.104V56.2214C240.789 57.1729 240.605 58.0281 240.238 58.7869C239.877 59.5396 239.356 60.1268 238.675 60.5483C238.001 60.9699 237.224 61.1807 236.345 61.1807C235.02 61.1807 233.945 60.72 233.12 59.7986C232.301 58.8772 231.891 57.6577 231.891 56.1401V56.0227ZM233.572 56.2214C233.572 57.3054 233.821 58.1756 234.321 58.832C234.827 59.4884 235.502 59.8167 236.345 59.8167C237.194 59.8167 237.868 59.4854 238.368 58.823C238.868 58.1545 239.118 57.2211 239.118 56.0227C239.118 54.9508 238.862 54.0836 238.35 53.4211C237.844 52.7527 237.17 52.4185 236.327 52.4185C235.502 52.4185 234.836 52.7467 234.33 53.4031C233.824 54.0595 233.572 54.9989 233.572 56.2214ZM251.141 56.2214C251.141 57.7089 250.801 58.9073 250.12 59.8167C249.44 60.726 248.518 61.1807 247.356 61.1807C246.17 61.1807 245.236 60.8043 244.556 60.0515V64.7578H242.885V51.2261H244.411L244.493 52.3101C245.173 51.467 246.119 51.0454 247.329 51.0454C248.503 51.0454 249.431 51.488 250.111 52.3733C250.798 53.2585 251.141 54.4901 251.141 56.0679V56.2214ZM249.47 56.0317C249.47 54.9297 249.235 54.0595 248.765 53.4211C248.296 52.7828 247.651 52.4636 246.832 52.4636C245.821 52.4636 245.062 52.9123 244.556 53.8096V58.4797C245.056 59.371 245.821 59.8167 246.85 59.8167C247.651 59.8167 248.287 59.5005 248.756 58.8682C249.232 58.2298 249.47 57.2843 249.47 56.0317ZM256.362 58.552L258.639 51.2261H260.427L256.498 62.5085C255.89 64.1345 254.923 64.9475 253.598 64.9475L253.282 64.9204L252.659 64.803V63.448L253.11 63.4841C253.676 63.4841 254.116 63.3697 254.429 63.1409C254.748 62.912 255.01 62.4935 255.215 61.8853L255.585 60.8916L252.099 51.2261H253.923L256.362 58.552ZM261.34 59.636L261.918 58.9224C262.568 58.0793 262.938 56.8146 263.029 55.1284L263.182 51.2261H269.479V59.636H270.734V63.8726H269.063V61H262.243V63.8726H260.572L260.581 59.636H261.34ZM263.318 59.636H267.807V52.7708H264.799L264.7 55.1013C264.598 57.0465 264.137 58.558 263.318 59.636ZM272.143 56.0227C272.143 55.0652 272.33 54.204 272.703 53.4392C273.083 52.6744 273.607 52.0842 274.275 51.6687C274.95 51.2532 275.717 51.0454 276.579 51.0454C277.91 51.0454 278.984 51.5061 279.803 52.4275C280.628 53.3489 281.041 54.5744 281.041 56.104V56.2214C281.041 57.1729 280.857 58.0281 280.49 58.7869C280.129 59.5396 279.608 60.1268 278.927 60.5483C278.253 60.9699 277.476 61.1807 276.597 61.1807C275.272 61.1807 274.197 60.72 273.372 59.7986C272.553 58.8772 272.143 57.6577 272.143 56.1401V56.0227ZM273.823 56.2214C273.823 57.3054 274.073 58.1756 274.573 58.832C275.079 59.4884 275.754 59.8167 276.597 59.8167C277.446 59.8167 278.12 59.4854 278.62 58.823C279.12 58.1545 279.37 57.2211 279.37 56.0227C279.37 54.9508 279.114 54.0836 278.602 53.4211C278.096 52.7527 277.422 52.4185 276.579 52.4185C275.754 52.4185 275.088 52.7467 274.582 53.4031C274.076 54.0595 273.823 54.9989 273.823 56.2214ZM283.29 61V51.2261H287.102C288.403 51.2261 289.4 51.4549 290.092 51.9126C290.791 52.3643 291.14 53.0297 291.14 53.9089C291.14 54.3606 291.005 54.7701 290.734 55.1375C290.463 55.4988 290.062 55.7758 289.532 55.9685C290.122 56.107 290.595 56.378 290.95 56.7815C291.312 57.185 291.492 57.6667 291.492 58.2268C291.492 59.1241 291.161 59.8106 290.499 60.2864C289.842 60.7621 288.912 61 287.708 61H283.29ZM284.961 56.7092V59.6541H287.726C288.424 59.6541 288.945 59.5246 289.288 59.2656C289.638 59.0067 289.812 58.6423 289.812 58.1726C289.812 57.197 289.096 56.7092 287.662 56.7092H284.961ZM284.961 55.3723H287.12C288.686 55.3723 289.469 54.9146 289.469 53.9993C289.469 53.0839 288.728 52.6112 287.247 52.5811H284.961V55.3723ZM299.74 61C299.643 60.8073 299.565 60.464 299.505 59.9702C298.728 60.7772 297.801 61.1807 296.723 61.1807C295.759 61.1807 294.967 60.9097 294.347 60.3677C293.733 59.8197 293.426 59.1271 293.426 58.29C293.426 57.2723 293.811 56.4834 294.582 55.9233C295.359 55.3573 296.449 55.0742 297.852 55.0742H299.478V54.3064C299.478 53.7222 299.303 53.2585 298.954 52.9153C298.605 52.566 298.09 52.3914 297.409 52.3914C296.813 52.3914 296.313 52.5419 295.91 52.843C295.506 53.1441 295.304 53.5085 295.304 53.936H293.624C293.624 53.4482 293.796 52.9785 294.139 52.5269C294.488 52.0692 294.958 51.7078 295.548 51.4429C296.145 51.1779 296.798 51.0454 297.509 51.0454C298.635 51.0454 299.517 51.3285 300.155 51.8945C300.794 52.4546 301.125 53.2284 301.149 54.2161V58.7146C301.149 59.6119 301.263 60.3255 301.492 60.8555V61H299.74ZM296.967 59.7263C297.49 59.7263 297.987 59.5908 298.457 59.3198C298.927 59.0488 299.267 58.6965 299.478 58.2629V56.2576H298.168C296.12 56.2576 295.097 56.8568 295.097 58.0552C295.097 58.5791 295.271 58.9886 295.621 59.2837C295.97 59.5788 296.419 59.7263 296.967 59.7263ZM311.754 61H310.083V56.8267H305.593V61H303.913V51.2261H305.593V55.4626H310.083V51.2261H311.754V61ZM320.769 51.2261H322.44V61H320.769V53.8728L316.261 61H314.59V51.2261H316.261V58.3623L320.769 51.2261ZM329.179 61.1807C327.854 61.1807 326.776 60.7471 325.945 59.8799C325.114 59.0067 324.698 57.8414 324.698 56.384V56.0769C324.698 55.1073 324.882 54.2432 325.25 53.4844C325.623 52.7196 326.141 52.1234 326.803 51.6958C327.472 51.2622 328.194 51.0454 328.971 51.0454C330.242 51.0454 331.229 51.4639 331.934 52.301C332.639 53.1381 332.991 54.3365 332.991 55.8962V56.5918H326.37C326.394 57.5553 326.674 58.3352 327.21 58.9314C327.752 59.5216 328.438 59.8167 329.269 59.8167C329.859 59.8167 330.359 59.6962 330.769 59.4553C331.178 59.2144 331.537 58.8953 331.844 58.4978L332.865 59.2927C332.045 60.5514 330.817 61.1807 329.179 61.1807ZM328.971 52.4185C328.297 52.4185 327.731 52.6654 327.273 53.1592C326.815 53.647 326.532 54.3335 326.424 55.2188H331.32V55.0923C331.272 54.2432 331.043 53.5868 330.633 53.123C330.224 52.6533 329.67 52.4185 328.971 52.4185Z" fill="#4D4D4D"/>
</svg>
